<svg width="655" height="282" viewBox="0 0 655 282" fill="none" xmlns="http://www.w3.org/2000/svg">
<path d="M154.943 150.45V132.15H177.743C180.643 132.15 183.293 131.55 185.693 130.35C188.093 129.15 189.993 127.4 191.393 125.1C192.793 122.8 193.493 120 193.493 116.7C193.493 113.5 192.793 110.75 191.393 108.45C189.993 106.15 188.093 104.4 185.693 103.2C183.293 102 180.643 101.4 177.743 101.4H154.943V83.1H181.193C187.893 83.1 193.943 84.45 199.343 87.15C204.743 89.85 208.993 93.75 212.093 98.85C215.293 103.85 216.893 109.8 216.893 116.7C216.893 123.6 215.293 129.6 212.093 134.7C208.993 139.7 204.743 143.6 199.343 146.4C193.943 149.1 187.893 150.45 181.193 150.45H154.943ZM136.943 189V83.1H160.493V189H136.943ZM261.956 190.65C254.056 190.65 247.006 189.05 240.806 185.85C234.706 182.55 229.906 178 226.406 172.2C222.906 166.4 221.156 159.85 221.156 152.55C221.156 145.25 222.856 138.75 226.256 133.05C229.756 127.25 234.456 122.7 240.356 119.4C246.256 116.1 252.906 114.45 260.306 114.45C267.506 114.45 273.856 116 279.356 119.1C284.856 122.2 289.156 126.5 292.256 132C295.456 137.5 297.056 143.8 297.056 150.9C297.056 152.2 296.956 153.6 296.756 155.1C296.656 156.5 296.406 158.15 296.006 160.05L233.156 160.2V144.45L286.256 144.3L276.356 150.9C276.256 146.7 275.606 143.25 274.406 140.55C273.206 137.75 271.406 135.65 269.006 134.25C266.706 132.75 263.856 132 260.456 132C256.856 132 253.706 132.85 251.006 134.55C248.406 136.15 246.356 138.45 244.856 141.45C243.456 144.45 242.756 148.1 242.756 152.4C242.756 156.7 243.506 160.4 245.006 163.5C246.606 166.5 248.806 168.85 251.606 170.55C254.506 172.15 257.906 172.95 261.806 172.95C265.406 172.95 268.656 172.35 271.556 171.15C274.456 169.85 277.006 167.95 279.206 165.45L291.806 178.05C288.206 182.25 283.856 185.4 278.756 187.5C273.656 189.6 268.056 190.65 261.956 190.65ZM329.912 189L299.012 116.1H323.762L344.762 176.85H333.962L354.962 116.1H379.262L348.362 188.85L329.912 189ZM421.478 190.65C413.578 190.65 406.528 189.05 400.328 185.85C394.228 182.55 389.428 178 385.928 172.2C382.428 166.4 380.678 159.85 380.678 152.55C380.678 145.25 382.378 138.75 385.778 133.05C389.278 127.25 393.978 122.7 399.878 119.4C405.778 116.1 412.428 114.45 419.828 114.45C427.028 114.45 433.378 116 438.878 119.1C444.378 122.2 448.678 126.5 451.778 132C454.978 137.5 456.578 143.8 456.578 150.9C456.578 152.2 456.478 153.6 456.278 155.1C456.178 156.5 455.928 158.15 455.528 160.05L392.678 160.2V144.45L445.778 144.3L435.878 150.9C435.778 146.7 435.128 143.25 433.928 140.55C432.728 137.75 430.928 135.65 428.528 134.25C426.228 132.75 423.378 132 419.978 132C416.378 132 413.228 132.85 410.528 134.55C407.928 136.15 405.878 138.45 404.378 141.45C402.978 144.45 402.278 148.1 402.278 152.4C402.278 156.7 403.028 160.4 404.528 163.5C406.128 166.5 408.328 168.85 411.128 170.55C414.028 172.15 417.428 172.95 421.328 172.95C424.928 172.95 428.178 172.35 431.078 171.15C433.978 169.85 436.528 167.95 438.728 165.45L451.328 178.05C447.728 182.25 443.378 185.4 438.278 187.5C433.178 189.6 427.578 190.65 421.478 190.65ZM494.206 190.8C489.906 190.8 485.656 190.25 481.456 189.15C477.356 188.05 473.506 186.5 469.906 184.5C466.406 182.4 463.406 180 460.906 177.3L473.956 164.1C476.356 166.7 479.206 168.75 482.506 170.25C485.806 171.65 489.406 172.35 493.306 172.35C496.006 172.35 498.056 171.95 499.456 171.15C500.956 170.35 501.706 169.25 501.706 167.85C501.706 166.05 500.806 164.7 499.006 163.8C497.306 162.8 495.106 161.95 492.406 161.25C489.706 160.45 486.856 159.6 483.856 158.7C480.856 157.8 478.006 156.55 475.306 154.95C472.606 153.35 470.406 151.15 468.706 148.35C467.006 145.45 466.156 141.8 466.156 137.4C466.156 132.7 467.356 128.65 469.756 125.25C472.156 121.75 475.556 119 479.956 117C484.356 115 489.506 114 495.406 114C501.606 114 507.306 115.1 512.506 117.3C517.806 119.4 522.106 122.55 525.406 126.75L512.356 139.95C510.056 137.25 507.456 135.35 504.556 134.25C501.756 133.15 499.006 132.6 496.306 132.6C493.706 132.6 491.756 133 490.456 133.8C489.156 134.5 488.506 135.55 488.506 136.95C488.506 138.45 489.356 139.65 491.056 140.55C492.756 141.45 494.956 142.25 497.656 142.95C500.356 143.65 503.206 144.5 506.206 145.5C509.206 146.5 512.056 147.85 514.756 149.55C517.456 151.25 519.656 153.55 521.356 156.45C523.056 159.25 523.906 162.95 523.906 167.55C523.906 174.65 521.206 180.3 515.806 184.5C510.506 188.7 503.306 190.8 494.206 190.8Z" fill="white"/>
<g filter="url(#filter0_d_59_61)">
<path d="M384.518 8.84073C381.83 6.03796 378.639 3.8146 375.126 2.29768C371.614 0.780762 367.849 0 364.047 0C360.245 0 356.481 0.780762 352.968 2.29768C349.456 3.8146 346.264 6.03796 343.577 8.84073L337.999 14.6547L332.42 8.84073C326.991 3.18198 319.628 0.00293312 311.95 0.00293318C304.272 0.00293324 296.908 3.18198 291.479 8.84073C286.05 14.4995 283 22.1744 283 30.177C283 38.1797 286.05 45.8546 291.479 51.5134L297.057 57.3274L337.999 100L378.94 57.3274L384.518 51.5134C387.207 48.7119 389.34 45.3857 390.796 41.7247C392.251 38.0638 393 34.1398 393 30.177C393 26.2143 392.251 22.2903 390.796 18.6294C389.34 14.9684 387.207 11.6422 384.518 8.84073Z" fill="url(#paint0_linear_59_61)"/>
</g>
<defs>
<filter id="filter0_d_59_61" x="279" y="0" width="118" height="108" filterUnits="userSpaceOnUse" color-interpolation-filters="sRGB">
<feFlood flood-opacity="0" result="BackgroundImageFix"/>
<feColorMatrix in="SourceAlpha" type="matrix" values="0 0 0 0 0 0 0 0 0 0 0 0 0 0 0 0 0 0 127 0" result="hardAlpha"/>
<feOffset dy="4"/>
<feGaussianBlur stdDeviation="2"/>
<feComposite in2="hardAlpha" operator="out"/>
<feColorMatrix type="matrix" values="0 0 0 0 0 0 0 0 0 0 0 0 0 0 0 0 0 0 0.25 0"/>
<feBlend mode="normal" in2="BackgroundImageFix" result="effect1_dropShadow_59_61"/>
<feBlend mode="normal" in="SourceGraphic" in2="effect1_dropShadow_59_61" result="shape"/>
</filter>
<linearGradient id="paint0_linear_59_61" x1="441" y1="-63" x2="151" y2="185" gradientUnits="userSpaceOnUse">
<stop offset="0.123211" stop-color="#AB77FF"/>
<stop offset="0.782698" stop-color="#E10252"/>
</linearGradient>
</defs>
</svg>
